<?xml version="1.0" encoding="utf-8"?>
<!-- Generator: Adobe Illustrator 23.0.4, SVG Export Plug-In . SVG Version: 6.00 Build 0)  -->
<svg version="1.1" id="dynamic-web-frame" xmlns="http://www.w3.org/2000/svg" xmlns:xlink="http://www.w3.org/1999/xlink" x="0px"
	 y="0px" viewBox="0 0 279 361.7" style="enable-background:new 0 0 279 361.7;" xml:space="preserve">
<style type="text/css">
	.frame-color{fill:#000000;}
	.background-color{fill:#ffffff;}
	.text-color{fill:#FFFFFF;}
	.icon-color{fill:#000000;opacity:1;}
	.icon-black{fill:#000000;opacity:0}

	.circle-color{fill:#000000;}
	.circle-color-black{fill:#FFFFFF;}
	.circle-outline{fill:#000000;opacity:0}

	.show_on_light{opacity:0;}
	.hide_on_light{opacity:1;}
</style>

<svg xmlns="http://www.w3.org/2000/svg" xmlns:xlink="http://www.w3.org/1999/xlink" version="1.1" width="259.8" height="259.8" viewBox="0 0 2000 2000" x="9.6" y="9.6" shape-rendering="crispEdges"><defs/><rect x="0" y="0" width="2000" height="2000" fill="#ffffff"/><svg viewBox="0 0 4 4" x="776" y="200" width="64" height="64" shape-rendering="auto"><path fill="#e20808" d="M3.15,4A0.85,0.85,0,0,0,4,3.15V4Z"/></svg><svg viewBox="0 0 4 4" x="840" y="200" width="64" height="64" shape-rendering="auto"><path fill="#e20808" d="M4,3.15V0.85A0.85,0.85,0,0,0,3.15,0H0.85A0.85,0.85,0,0,0,0,0.85V4H4Z"/></svg><svg viewBox="0 0 4 4" x="1160" y="200" width="64" height="64" shape-rendering="auto"><rect fill="#e20808" width="4" height="4" rx="0.85"/></svg><svg viewBox="0 0 4 4" x="712" y="264" width="64" height="64" shape-rendering="auto"><path fill="#e20808" d="M0.85,0A0.85,0.85,0,0,0,0,0.85V4H4V0H0.85Z"/></svg><svg viewBox="0 0 4 4" x="776" y="264" width="64" height="64" shape-rendering="auto"><rect fill="#e20808" width="4" height="4"/></svg><svg viewBox="0 0 4 4" x="840" y="264" width="64" height="64" shape-rendering="auto"><path fill="#e20808" d="M4,3.15A0.85,0.85,0,0,1,3.15,4H0V0H4V3.15Z"/></svg><svg viewBox="0 0 4 4" x="1032" y="264" width="64" height="64" shape-rendering="auto"><path fill="#e20808" d="M3.15,0H0.85A0.85,0.85,0,0,0,0,0.85v2.3A0.85,0.85,0,0,0,0.85,4H4V0Z"/></svg><svg viewBox="0 0 4 4" x="1096" y="264" width="64" height="64" shape-rendering="auto"><path fill="#e20808" d="M0.85,4h2.3A0.85,0.85,0,0,0,4,3.15V0.85A0.85,0.85,0,0,0,3.15,0H0V4Z"/></svg><svg viewBox="0 0 4 4" x="1160" y="264" width="64" height="64" shape-rendering="auto"><path fill="#e20808" d="M3.15,4A0.85,0.85,0,0,0,4,3.15V4Z"/></svg><svg viewBox="0 0 4 4" x="1224" y="264" width="64" height="64" shape-rendering="auto"><path fill="#e20808" d="M4,3.15V0.85A0.85,0.85,0,0,0,3.15,0H0.85A0.85,0.85,0,0,0,0,0.85V4H4Z"/></svg><svg viewBox="0 0 4 4" x="712" y="328" width="64" height="64" shape-rendering="auto"><path fill="#e20808" d="M0,3.15A0.85,0.85,0,0,0,0.85,4h2.3A0.85,0.85,0,0,0,4,3.15V0H0V3.15Z"/></svg><svg viewBox="0 0 4 4" x="776" y="328" width="64" height="64" shape-rendering="auto"><path fill="#e20808" d="M0.85,0H0V0.85A0.85,0.85,0,0,1,0.85,0Z"/></svg><svg viewBox="0 0 4 4" x="1160" y="328" width="64" height="64" shape-rendering="auto"><path fill="#e20808" d="M0.85,0A0.85,0.85,0,0,0,0,0.85V4H4V0H0.85Z"/></svg><svg viewBox="0 0 4 4" x="1224" y="328" width="64" height="64" shape-rendering="auto"><rect fill="#e20808" width="4" height="4"/></svg><svg viewBox="0 0 4 4" x="712" y="392" width="64" height="64" shape-rendering="auto"><path fill="#e20808" d="M3.15,4A0.85,0.85,0,0,0,4,3.15V4Z"/></svg><svg viewBox="0 0 4 4" x="776" y="392" width="64" height="64" shape-rendering="auto"><path fill="#e20808" d="M4,3.15V0.85A0.85,0.85,0,0,0,3.15,0H0.85A0.85,0.85,0,0,0,0,0.85V4H4Z"/></svg><svg viewBox="0 0 4 4" x="840" y="392" width="64" height="64" shape-rendering="auto"><path fill="#e20808" d="M0.85,4A0.85,0.85,0,0,1,0,3.15V4Z"/></svg><svg viewBox="0 0 4 4" x="968" y="392" width="64" height="64" shape-rendering="auto"><path fill="#e20808" d="M4,3.15V0.85A0.85,0.85,0,0,0,3.15,0H0.85A0.85,0.85,0,0,0,0,0.85V4H4Z"/></svg><svg viewBox="0 0 4 4" x="1032" y="392" width="64" height="64" shape-rendering="auto"><path fill="#e20808" d="M0.85,4A0.85,0.85,0,0,1,0,3.15V4Z"/></svg><svg viewBox="0 0 4 4" x="1160" y="392" width="64" height="64" shape-rendering="auto"><path fill="#e20808" d="M0,3.15A0.85,0.85,0,0,0,0.85,4H4V0H0V3.15Z"/></svg><svg viewBox="0 0 4 4" x="1224" y="392" width="64" height="64" shape-rendering="auto"><rect fill="#e20808" width="4" height="4"/></svg><svg viewBox="0 0 4 4" x="712" y="456" width="64" height="64" shape-rendering="auto"><path fill="#e20808" d="M0.85,0A0.85,0.85,0,0,0,0,0.85V4H4V0H0.85Z"/></svg><svg viewBox="0 0 4 4" x="776" y="456" width="64" height="64" shape-rendering="auto"><rect fill="#e20808" width="4" height="4"/></svg><svg viewBox="0 0 4 4" x="840" y="456" width="64" height="64" shape-rendering="auto"><path fill="#e20808" d="M3.15,0A0.85,0.85,0,0,1,4,0.85V4H0V0H3.15Z"/></svg><svg viewBox="0 0 4 4" x="968" y="456" width="64" height="64" shape-rendering="auto"><rect fill="#e20808" width="4" height="4"/></svg><svg viewBox="0 0 4 4" x="1032" y="456" width="64" height="64" shape-rendering="auto"><rect fill="#e20808" width="4" height="4"/></svg><svg viewBox="0 0 4 4" x="1096" y="456" width="64" height="64" shape-rendering="auto"><path fill="#e20808" d="M0.85,4h2.3A0.85,0.85,0,0,0,4,3.15V0.85A0.85,0.85,0,0,0,3.15,0H0V4Z"/></svg><svg viewBox="0 0 4 4" x="1160" y="456" width="64" height="64" shape-rendering="auto"><path fill="#e20808" d="M4,0.85V0H3.15A0.85,0.85,0,0,1,4,0.85Z"/></svg><svg viewBox="0 0 4 4" x="1224" y="456" width="64" height="64" shape-rendering="auto"><path fill="#e20808" d="M0,3.15A0.85,0.85,0,0,0,0.85,4h2.3A0.85,0.85,0,0,0,4,3.15V0H0V3.15Z"/></svg><svg viewBox="0 0 4 4" x="712" y="520" width="64" height="64" shape-rendering="auto"><rect fill="#e20808" width="4" height="4"/></svg><svg viewBox="0 0 4 4" x="776" y="520" width="64" height="64" shape-rendering="auto"><path fill="#e20808" d="M0.85,0H0V0.85A0.85,0.85,0,0,1,0.85,0Z"/></svg><svg viewBox="0 0 4 4" x="776" y="520" width="64" height="64" shape-rendering="auto"><path fill="#e20808" d="M4,0.85V0H3.15A0.85,0.85,0,0,1,4,0.85Z"/></svg><svg viewBox="0 0 4 4" x="840" y="520" width="64" height="64" shape-rendering="auto"><rect fill="#e20808" width="4" height="4"/></svg><svg viewBox="0 0 4 4" x="968" y="520" width="64" height="64" shape-rendering="auto"><rect fill="#e20808" width="4" height="4"/></svg><svg viewBox="0 0 4 4" x="1032" y="520" width="64" height="64" shape-rendering="auto"><path fill="#e20808" d="M0.85,0H0V0.85A0.85,0.85,0,0,1,0.85,0Z"/></svg><svg viewBox="0 0 4 4" x="1160" y="520" width="64" height="64" shape-rendering="auto"><rect fill="#e20808" width="4" height="4" rx="0.85"/></svg><svg viewBox="0 0 4 4" x="712" y="584" width="64" height="64" shape-rendering="auto"><rect fill="#e20808" width="4" height="4"/></svg><svg viewBox="0 0 4 4" x="840" y="584" width="64" height="64" shape-rendering="auto"><rect fill="#e20808" width="4" height="4"/></svg><svg viewBox="0 0 4 4" x="904" y="584" width="64" height="64" shape-rendering="auto"><path fill="#e20808" d="M0.85,4A0.85,0.85,0,0,1,0,3.15V4Z"/></svg><svg viewBox="0 0 4 4" x="968" y="584" width="64" height="64" shape-rendering="auto"><path fill="#e20808" d="M0,3.15A0.85,0.85,0,0,0,0.85,4h2.3A0.85,0.85,0,0,0,4,3.15V0H0V3.15Z"/></svg><svg viewBox="0 0 4 4" x="1096" y="584" width="64" height="64" shape-rendering="auto"><rect fill="#e20808" width="4" height="4" rx="0.85"/></svg><svg viewBox="0 0 4 4" x="1224" y="584" width="64" height="64" shape-rendering="auto"><rect fill="#e20808" width="4" height="4" rx="0.85"/></svg><svg viewBox="0 0 4 4" x="712" y="648" width="64" height="64" shape-rendering="auto"><path fill="#e20808" d="M0,3.15A0.85,0.85,0,0,0,0.85,4h2.3A0.85,0.85,0,0,0,4,3.15V0H0V3.15Z"/></svg><svg viewBox="0 0 4 4" x="840" y="648" width="64" height="64" shape-rendering="auto"><path fill="#e20808" d="M0,3.15A0.85,0.85,0,0,0,0.85,4H4V0H0V3.15Z"/></svg><svg viewBox="0 0 4 4" x="904" y="648" width="64" height="64" shape-rendering="auto"><path fill="#e20808" d="M3.15,0A0.85,0.85,0,0,1,4,0.85V4H0V0H3.15Z"/></svg><svg viewBox="0 0 4 4" x="968" y="648" width="64" height="64" shape-rendering="auto"><path fill="#e20808" d="M0.85,4A0.85,0.85,0,0,1,0,3.15V4Z"/></svg><svg viewBox="0 0 4 4" x="200" y="712" width="64" height="64" shape-rendering="auto"><path fill="#e20808" d="M3.15,0H0.85A0.85,0.85,0,0,0,0,0.85v2.3A0.85,0.85,0,0,0,0.85,4H4V0Z"/></svg><svg viewBox="0 0 4 4" x="264" y="712" width="64" height="64" shape-rendering="auto"><path fill="#e20808" d="M3.15,0A0.85,0.85,0,0,1,4,0.85V4H0V0H3.15Z"/></svg><svg viewBox="0 0 4 4" x="328" y="712" width="64" height="64" shape-rendering="auto"><path fill="#e20808" d="M3.15,4A0.85,0.85,0,0,0,4,3.15V4Z"/></svg><svg viewBox="0 0 4 4" x="328" y="712" width="64" height="64" shape-rendering="auto"><path fill="#e20808" d="M0.85,4A0.85,0.85,0,0,1,0,3.15V4Z"/></svg><svg viewBox="0 0 4 4" x="392" y="712" width="64" height="64" shape-rendering="auto"><path fill="#e20808" d="M4,3.15V0.85A0.85,0.85,0,0,0,3.15,0H0.85A0.85,0.85,0,0,0,0,0.85V4H4Z"/></svg><svg viewBox="0 0 4 4" x="456" y="712" width="64" height="64" shape-rendering="auto"><path fill="#e20808" d="M0.85,4A0.85,0.85,0,0,1,0,3.15V4Z"/></svg><svg viewBox="0 0 4 4" x="584" y="712" width="64" height="64" shape-rendering="auto"><path fill="#e20808" d="M3.15,0H0.85A0.85,0.85,0,0,0,0,0.85v2.3A0.85,0.85,0,0,0,0.85,4H4V0Z"/></svg><svg viewBox="0 0 4 4" x="648" y="712" width="64" height="64" shape-rendering="auto"><path fill="#e20808" d="M0.85,4h2.3A0.85,0.85,0,0,0,4,3.15V0.85A0.85,0.85,0,0,0,3.15,0H0V4Z"/></svg><svg viewBox="0 0 4 4" x="840" y="712" width="64" height="64" shape-rendering="auto"><path fill="#e20808" d="M4,0.85V0H3.15A0.85,0.85,0,0,1,4,0.85Z"/></svg><svg viewBox="0 0 4 4" x="904" y="712" width="64" height="64" shape-rendering="auto"><rect fill="#e20808" width="4" height="4"/></svg><svg viewBox="0 0 4 4" x="968" y="712" width="64" height="64" shape-rendering="auto"><rect fill="#e20808" width="4" height="4"/></svg><svg viewBox="0 0 4 4" x="1032" y="712" width="64" height="64" shape-rendering="auto"><path fill="#e20808" d="M3.15,0A0.85,0.85,0,0,1,4,0.85V4H0V0H3.15Z"/></svg><svg viewBox="0 0 4 4" x="1160" y="712" width="64" height="64" shape-rendering="auto"><path fill="#e20808" d="M3.15,4A0.85,0.85,0,0,0,4,3.15V4Z"/></svg><svg viewBox="0 0 4 4" x="1224" y="712" width="64" height="64" shape-rendering="auto"><path fill="#e20808" d="M4,3.15V0.85A0.85,0.85,0,0,0,3.15,0H0.85A0.85,0.85,0,0,0,0,0.85V4H4Z"/></svg><svg viewBox="0 0 4 4" x="1352" y="712" width="64" height="64" shape-rendering="auto"><path fill="#e20808" d="M0.85,0A0.85,0.85,0,0,0,0,0.85V4H4V0H0.85Z"/></svg><svg viewBox="0 0 4 4" x="1416" y="712" width="64" height="64" shape-rendering="auto"><rect fill="#e20808" width="4" height="4"/></svg><svg viewBox="0 0 4 4" x="1480" y="712" width="64" height="64" shape-rendering="auto"><path fill="#e20808" d="M3.15,0A0.85,0.85,0,0,1,4,0.85V4H0V0H3.15Z"/></svg><svg viewBox="0 0 4 4" x="1608" y="712" width="64" height="64" shape-rendering="auto"><path fill="#e20808" d="M3.15,0H0.85A0.85,0.85,0,0,0,0,0.85v2.3A0.85,0.85,0,0,0,0.85,4H4V0Z"/></svg><svg viewBox="0 0 4 4" x="1672" y="712" width="64" height="64" shape-rendering="auto"><path fill="#e20808" d="M3.15,0A0.85,0.85,0,0,1,4,0.85V4H0V0H3.15Z"/></svg><svg viewBox="0 0 4 4" x="200" y="776" width="64" height="64" shape-rendering="auto"><path fill="#e20808" d="M4,0.85V0H3.15A0.85,0.85,0,0,1,4,0.85Z"/></svg><svg viewBox="0 0 4 4" x="264" y="776" width="64" height="64" shape-rendering="auto"><path fill="#e20808" d="M0,3.15A0.85,0.85,0,0,0,0.85,4H4V0H0V3.15Z"/></svg><svg viewBox="0 0 4 4" x="328" y="776" width="64" height="64" shape-rendering="auto"><rect fill="#e20808" width="4" height="4"/></svg><svg viewBox="0 0 4 4" x="392" y="776" width="64" height="64" shape-rendering="auto"><rect fill="#e20808" width="4" height="4"/></svg><svg viewBox="0 0 4 4" x="456" y="776" width="64" height="64" shape-rendering="auto"><path fill="#e20808" d="M0.85,4h2.3A0.85,0.85,0,0,0,4,3.15V0.85A0.85,0.85,0,0,0,3.15,0H0V4Z"/></svg><svg viewBox="0 0 4 4" x="712" y="776" width="64" height="64" shape-rendering="auto"><path fill="#e20808" d="M3.15,0H0.85A0.85,0.85,0,0,0,0,0.85v2.3A0.85,0.85,0,0,0,0.85,4H4V0Z"/></svg><svg viewBox="0 0 4 4" x="776" y="776" width="64" height="64" shape-rendering="auto"><path fill="#e20808" d="M0.85,4h2.3A0.85,0.85,0,0,0,4,3.15V0.85A0.85,0.85,0,0,0,3.15,0H0V4Z"/></svg><svg viewBox="0 0 4 4" x="904" y="776" width="64" height="64" shape-rendering="auto"><rect fill="#e20808" width="4" height="4"/></svg><svg viewBox="0 0 4 4" x="968" y="776" width="64" height="64" shape-rendering="auto"><rect fill="#e20808" width="4" height="4"/></svg><svg viewBox="0 0 4 4" x="1032" y="776" width="64" height="64" shape-rendering="auto"><path fill="#e20808" d="M4,3.15A0.85,0.85,0,0,1,3.15,4H0V0H4V3.15Z"/></svg><svg viewBox="0 0 4 4" x="1160" y="776" width="64" height="64" shape-rendering="auto"><path fill="#e20808" d="M3.15,0H0.85A0.85,0.85,0,0,0,0,0.85v2.3A0.85,0.85,0,0,0,0.85,4H4V0Z"/></svg><svg viewBox="0 0 4 4" x="1224" y="776" width="64" height="64" shape-rendering="auto"><path fill="#e20808" d="M4,3.15A0.85,0.85,0,0,1,3.15,4H0V0H4V3.15Z"/></svg><svg viewBox="0 0 4 4" x="1288" y="776" width="64" height="64" shape-rendering="auto"><path fill="#e20808" d="M3.15,4A0.85,0.85,0,0,0,4,3.15V4Z"/></svg><svg viewBox="0 0 4 4" x="1352" y="776" width="64" height="64" shape-rendering="auto"><rect fill="#e20808" width="4" height="4"/></svg><svg viewBox="0 0 4 4" x="1416" y="776" width="64" height="64" shape-rendering="auto"><path fill="#e20808" d="M0.85,0H0V0.85A0.85,0.85,0,0,1,0.85,0Z"/></svg><svg viewBox="0 0 4 4" x="1416" y="776" width="64" height="64" shape-rendering="auto"><path fill="#e20808" d="M4,0.85V0H3.15A0.85,0.85,0,0,1,4,0.85Z"/></svg><svg viewBox="0 0 4 4" x="1416" y="776" width="64" height="64" shape-rendering="auto"><path fill="#e20808" d="M0.85,4A0.85,0.85,0,0,1,0,3.15V4Z"/></svg><svg viewBox="0 0 4 4" x="1480" y="776" width="64" height="64" shape-rendering="auto"><path fill="#e20808" d="M0,3.15A0.85,0.85,0,0,0,0.85,4h2.3A0.85,0.85,0,0,0,4,3.15V0H0V3.15Z"/></svg><svg viewBox="0 0 4 4" x="1608" y="776" width="64" height="64" shape-rendering="auto"><path fill="#e20808" d="M4,0.85V0H3.15A0.85,0.85,0,0,1,4,0.85Z"/></svg><svg viewBox="0 0 4 4" x="1672" y="776" width="64" height="64" shape-rendering="auto"><path fill="#e20808" d="M0,3.15A0.85,0.85,0,0,0,0.85,4h2.3A0.85,0.85,0,0,0,4,3.15V0H0V3.15Z"/></svg><svg viewBox="0 0 4 4" x="200" y="840" width="64" height="64" shape-rendering="auto"><rect fill="#e20808" width="4" height="4" rx="0.85"/></svg><svg viewBox="0 0 4 4" x="328" y="840" width="64" height="64" shape-rendering="auto"><path fill="#e20808" d="M4,0.85V0H3.15A0.85,0.85,0,0,1,4,0.85Z"/></svg><svg viewBox="0 0 4 4" x="392" y="840" width="64" height="64" shape-rendering="auto"><path fill="#e20808" d="M0,3.15A0.85,0.85,0,0,0,0.85,4h2.3A0.85,0.85,0,0,0,4,3.15V0H0V3.15Z"/></svg><svg viewBox="0 0 4 4" x="456" y="840" width="64" height="64" shape-rendering="auto"><path fill="#e20808" d="M0.85,0H0V0.85A0.85,0.85,0,0,1,0.85,0Z"/></svg><svg viewBox="0 0 4 4" x="520" y="840" width="64" height="64" shape-rendering="auto"><path fill="#e20808" d="M3.15,0H0.85A0.85,0.85,0,0,0,0,0.85v2.3A0.85,0.85,0,0,0,0.85,4H4V0Z"/></svg><svg viewBox="0 0 4 4" x="584" y="840" width="64" height="64" shape-rendering="auto"><rect fill="#e20808" width="4" height="4"/></svg><svg viewBox="0 0 4 4" x="648" y="840" width="64" height="64" shape-rendering="auto"><path fill="#e20808" d="M0.85,4h2.3A0.85,0.85,0,0,0,4,3.15V0.85A0.85,0.85,0,0,0,3.15,0H0V4Z"/></svg><svg viewBox="0 0 4 4" x="840" y="840" width="64" height="64" shape-rendering="auto"><path fill="#e20808" d="M3.15,4A0.85,0.85,0,0,0,4,3.15V4Z"/></svg><svg viewBox="0 0 4 4" x="904" y="840" width="64" height="64" shape-rendering="auto"><rect fill="#e20808" width="4" height="4"/></svg><svg viewBox="0 0 4 4" x="968" y="840" width="64" height="64" shape-rendering="auto"><rect fill="#e20808" width="4" height="4"/></svg><svg viewBox="0 0 4 4" x="1032" y="840" width="64" height="64" shape-rendering="auto"><path fill="#e20808" d="M0.85,0H0V0.85A0.85,0.85,0,0,1,0.85,0Z"/></svg><svg viewBox="0 0 4 4" x="1224" y="840" width="64" height="64" shape-rendering="auto"><path fill="#e20808" d="M3.15,4A0.85,0.85,0,0,0,4,3.15V4Z"/></svg><svg viewBox="0 0 4 4" x="1288" y="840" width="64" height="64" shape-rendering="auto"><path fill="#e20808" d="M0.85,0A0.85,0.85,0,0,0,0,0.85V4H4V0H0.85Z"/></svg><svg viewBox="0 0 4 4" x="1352" y="840" width="64" height="64" shape-rendering="auto"><rect fill="#e20808" width="4" height="4"/></svg><svg viewBox="0 0 4 4" x="1416" y="840" width="64" height="64" shape-rendering="auto"><path fill="#e20808" d="M3.15,0A0.85,0.85,0,0,1,4,0.85V4H0V0H3.15Z"/></svg><svg viewBox="0 0 4 4" x="1480" y="840" width="64" height="64" shape-rendering="auto"><path fill="#e20808" d="M0.85,4A0.85,0.85,0,0,1,0,3.15V4Z"/></svg><svg viewBox="0 0 4 4" x="1544" y="840" width="64" height="64" shape-rendering="auto"><path fill="#e20808" d="M3.15,0H0.85A0.85,0.85,0,0,0,0,0.85v2.3A0.85,0.85,0,0,0,0.85,4H4V0Z"/></svg><svg viewBox="0 0 4 4" x="1608" y="840" width="64" height="64" shape-rendering="auto"><path fill="#e20808" d="M0.85,4h2.3A0.85,0.85,0,0,0,4,3.15V0.85A0.85,0.85,0,0,0,3.15,0H0V4Z"/></svg><svg viewBox="0 0 4 4" x="264" y="904" width="64" height="64" shape-rendering="auto"><path fill="#e20808" d="M4,3.15V0.85A0.85,0.85,0,0,0,3.15,0H0.85A0.85,0.85,0,0,0,0,0.85V4H4Z"/></svg><svg viewBox="0 0 4 4" x="328" y="904" width="64" height="64" shape-rendering="auto"><path fill="#e20808" d="M0.85,4A0.85,0.85,0,0,1,0,3.15V4Z"/></svg><svg viewBox="0 0 4 4" x="456" y="904" width="64" height="64" shape-rendering="auto"><rect fill="#e20808" width="4" height="4" rx="0.85"/></svg><svg viewBox="0 0 4 4" x="712" y="904" width="64" height="64" shape-rendering="auto"><path fill="#e20808" d="M0.85,0A0.85,0.85,0,0,0,0,0.85V4H4V0H0.85Z"/></svg><svg viewBox="0 0 4 4" x="776" y="904" width="64" height="64" shape-rendering="auto"><rect fill="#e20808" width="4" height="4"/></svg><svg viewBox="0 0 4 4" x="840" y="904" width="64" height="64" shape-rendering="auto"><rect fill="#e20808" width="4" height="4"/></svg><svg viewBox="0 0 4 4" x="904" y="904" width="64" height="64" shape-rendering="auto"><rect fill="#e20808" width="4" height="4"/></svg><svg viewBox="0 0 4 4" x="968" y="904" width="64" height="64" shape-rendering="auto"><path fill="#e20808" d="M4,3.15A0.85,0.85,0,0,1,3.15,4H0V0H4V3.15Z"/></svg><svg viewBox="0 0 4 4" x="1096" y="904" width="64" height="64" shape-rendering="auto"><rect fill="#e20808" width="4" height="4" rx="0.85"/></svg><svg viewBox="0 0 4 4" x="1224" y="904" width="64" height="64" shape-rendering="auto"><path fill="#e20808" d="M0.85,0A0.85,0.85,0,0,0,0,0.85V4H4V0H0.85Z"/></svg><svg viewBox="0 0 4 4" x="1288" y="904" width="64" height="64" shape-rendering="auto"><rect fill="#e20808" width="4" height="4"/></svg><svg viewBox="0 0 4 4" x="1352" y="904" width="64" height="64" shape-rendering="auto"><rect fill="#e20808" width="4" height="4"/></svg><svg viewBox="0 0 4 4" x="1416" y="904" width="64" height="64" shape-rendering="auto"><rect fill="#e20808" width="4" height="4"/></svg><svg viewBox="0 0 4 4" x="1480" y="904" width="64" height="64" shape-rendering="auto"><path fill="#e20808" d="M0.85,4h2.3A0.85,0.85,0,0,0,4,3.15V0.85A0.85,0.85,0,0,0,3.15,0H0V4Z"/></svg><svg viewBox="0 0 4 4" x="1672" y="904" width="64" height="64" shape-rendering="auto"><path fill="#e20808" d="M3.15,4A0.85,0.85,0,0,0,4,3.15V4Z"/></svg><svg viewBox="0 0 4 4" x="1736" y="904" width="64" height="64" shape-rendering="auto"><path fill="#e20808" d="M4,3.15V0.85A0.85,0.85,0,0,0,3.15,0H0.85A0.85,0.85,0,0,0,0,0.85V4H4Z"/></svg><svg viewBox="0 0 4 4" x="264" y="968" width="64" height="64" shape-rendering="auto"><rect fill="#e20808" width="4" height="4"/></svg><svg viewBox="0 0 4 4" x="328" y="968" width="64" height="64" shape-rendering="auto"><path fill="#e20808" d="M0.85,4h2.3A0.85,0.85,0,0,0,4,3.15V0.85A0.85,0.85,0,0,0,3.15,0H0V4Z"/></svg><svg viewBox="0 0 4 4" x="520" y="968" width="64" height="64" shape-rendering="auto"><path fill="#e20808" d="M0.85,0A0.85,0.85,0,0,0,0,0.85V4H4V0H0.85Z"/></svg><svg viewBox="0 0 4 4" x="584" y="968" width="64" height="64" shape-rendering="auto"><path fill="#e20808" d="M0.85,4h2.3A0.85,0.85,0,0,0,4,3.15V0.85A0.85,0.85,0,0,0,3.15,0H0V4Z"/></svg><svg viewBox="0 0 4 4" x="648" y="968" width="64" height="64" shape-rendering="auto"><path fill="#e20808" d="M3.15,4A0.85,0.85,0,0,0,4,3.15V4Z"/></svg><svg viewBox="0 0 4 4" x="712" y="968" width="64" height="64" shape-rendering="auto"><rect fill="#e20808" width="4" height="4"/></svg><svg viewBox="0 0 4 4" x="776" y="968" width="64" height="64" shape-rendering="auto"><path fill="#e20808" d="M0.85,0H0V0.85A0.85,0.85,0,0,1,0.85,0Z"/></svg><svg viewBox="0 0 4 4" x="776" y="968" width="64" height="64" shape-rendering="auto"><path fill="#e20808" d="M4,0.85V0H3.15A0.85,0.85,0,0,1,4,0.85Z"/></svg><svg viewBox="0 0 4 4" x="776" y="968" width="64" height="64" shape-rendering="auto"><path fill="#e20808" d="M0.85,4A0.85,0.85,0,0,1,0,3.15V4Z"/></svg><svg viewBox="0 0 4 4" x="840" y="968" width="64" height="64" shape-rendering="auto"><path fill="#e20808" d="M0,3.15A0.85,0.85,0,0,0,0.85,4H4V0H0V3.15Z"/></svg><svg viewBox="0 0 4 4" x="904" y="968" width="64" height="64" shape-rendering="auto"><rect fill="#e20808" width="4" height="4"/></svg><svg viewBox="0 0 4 4" x="968" y="968" width="64" height="64" shape-rendering="auto"><path fill="#e20808" d="M0.85,0H0V0.85A0.85,0.85,0,0,1,0.85,0Z"/></svg><svg viewBox="0 0 4 4" x="1224" y="968" width="64" height="64" shape-rendering="auto"><path fill="#e20808" d="M0,3.15A0.85,0.85,0,0,0,0.85,4h2.3A0.85,0.85,0,0,0,4,3.15V0H0V3.15Z"/></svg><svg viewBox="0 0 4 4" x="1288" y="968" width="64" height="64" shape-rendering="auto"><path fill="#e20808" d="M0.85,0H0V0.85A0.85,0.85,0,0,1,0.85,0Z"/></svg><svg viewBox="0 0 4 4" x="1288" y="968" width="64" height="64" shape-rendering="auto"><path fill="#e20808" d="M4,0.85V0H3.15A0.85,0.85,0,0,1,4,0.85Z"/></svg><svg viewBox="0 0 4 4" x="1352" y="968" width="64" height="64" shape-rendering="auto"><path fill="#e20808" d="M0,3.15A0.85,0.85,0,0,0,0.85,4H4V0H0V3.15Z"/></svg><svg viewBox="0 0 4 4" x="1416" y="968" width="64" height="64" shape-rendering="auto"><rect fill="#e20808" width="4" height="4"/></svg><svg viewBox="0 0 4 4" x="1480" y="968" width="64" height="64" shape-rendering="auto"><path fill="#e20808" d="M0.85,0H0V0.85A0.85,0.85,0,0,1,0.85,0Z"/></svg><svg viewBox="0 0 4 4" x="1480" y="968" width="64" height="64" shape-rendering="auto"><path fill="#e20808" d="M0.85,4A0.85,0.85,0,0,1,0,3.15V4Z"/></svg><svg viewBox="0 0 4 4" x="1608" y="968" width="64" height="64" shape-rendering="auto"><path fill="#e20808" d="M0.85,0A0.85,0.85,0,0,0,0,0.85V4H4V0H0.85Z"/></svg><svg viewBox="0 0 4 4" x="1672" y="968" width="64" height="64" shape-rendering="auto"><rect fill="#e20808" width="4" height="4"/></svg><svg viewBox="0 0 4 4" x="1736" y="968" width="64" height="64" shape-rendering="auto"><rect fill="#e20808" width="4" height="4"/></svg><svg viewBox="0 0 4 4" x="264" y="1032" width="64" height="64" shape-rendering="auto"><path fill="#e20808" d="M0,3.15A0.85,0.85,0,0,0,0.85,4h2.3A0.85,0.85,0,0,0,4,3.15V0H0V3.15Z"/></svg><svg viewBox="0 0 4 4" x="328" y="1032" width="64" height="64" shape-rendering="auto"><path fill="#e20808" d="M0.85,0H0V0.85A0.85,0.85,0,0,1,0.85,0Z"/></svg><svg viewBox="0 0 4 4" x="456" y="1032" width="64" height="64" shape-rendering="auto"><path fill="#e20808" d="M3.15,4A0.85,0.85,0,0,0,4,3.15V4Z"/></svg><svg viewBox="0 0 4 4" x="520" y="1032" width="64" height="64" shape-rendering="auto"><rect fill="#e20808" width="4" height="4"/></svg><svg viewBox="0 0 4 4" x="584" y="1032" width="64" height="64" shape-rendering="auto"><path fill="#e20808" d="M0.85,0H0V0.85A0.85,0.85,0,0,1,0.85,0Z"/></svg><svg viewBox="0 0 4 4" x="584" y="1032" width="64" height="64" shape-rendering="auto"><path fill="#e20808" d="M0.85,4A0.85,0.85,0,0,1,0,3.15V4Z"/></svg><svg viewBox="0 0 4 4" x="648" y="1032" width="64" height="64" shape-rendering="auto"><path fill="#e20808" d="M3.15,0H0.85A0.85,0.85,0,0,0,0,0.85v2.3A0.85,0.85,0,0,0,0.85,4H4V0Z"/></svg><svg viewBox="0 0 4 4" x="712" y="1032" width="64" height="64" shape-rendering="auto"><rect fill="#e20808" width="4" height="4"/></svg><svg viewBox="0 0 4 4" x="776" y="1032" width="64" height="64" shape-rendering="auto"><path fill="#e20808" d="M3.15,0A0.85,0.85,0,0,1,4,0.85V4H0V0H3.15Z"/></svg><svg viewBox="0 0 4 4" x="840" y="1032" width="64" height="64" shape-rendering="auto"><path fill="#e20808" d="M4,0.85V0H3.15A0.85,0.85,0,0,1,4,0.85Z"/></svg><svg viewBox="0 0 4 4" x="904" y="1032" width="64" height="64" shape-rendering="auto"><rect fill="#e20808" width="4" height="4"/></svg><svg viewBox="0 0 4 4" x="1032" y="1032" width="64" height="64" shape-rendering="auto"><path fill="#e20808" d="M3.15,4A0.85,0.85,0,0,0,4,3.15V4Z"/></svg><svg viewBox="0 0 4 4" x="1096" y="1032" width="64" height="64" shape-rendering="auto"><path fill="#e20808" d="M4,3.15V0.85A0.85,0.85,0,0,0,3.15,0H0.85A0.85,0.85,0,0,0,0,0.85V4H4Z"/></svg><svg viewBox="0 0 4 4" x="1160" y="1032" width="64" height="64" shape-rendering="auto"><path fill="#e20808" d="M0.85,4A0.85,0.85,0,0,1,0,3.15V4Z"/></svg><svg viewBox="0 0 4 4" x="1352" y="1032" width="64" height="64" shape-rendering="auto"><path fill="#e20808" d="M4,0.85V0H3.15A0.85,0.85,0,0,1,4,0.85Z"/></svg><svg viewBox="0 0 4 4" x="1416" y="1032" width="64" height="64" shape-rendering="auto"><path fill="#e20808" d="M0,3.15A0.85,0.85,0,0,0,0.85,4H4V0H0V3.15Z"/></svg><svg viewBox="0 0 4 4" x="1480" y="1032" width="64" height="64" shape-rendering="auto"><path fill="#e20808" d="M3.15,0A0.85,0.85,0,0,1,4,0.85V4H0V0H3.15Z"/></svg><svg viewBox="0 0 4 4" x="1544" y="1032" width="64" height="64" shape-rendering="auto"><path fill="#e20808" d="M0.85,4A0.85,0.85,0,0,1,0,3.15V4Z"/></svg><svg viewBox="0 0 4 4" x="1608" y="1032" width="64" height="64" shape-rendering="auto"><path fill="#e20808" d="M0,3.15A0.85,0.85,0,0,0,0.85,4H4V0H0V3.15Z"/></svg><svg viewBox="0 0 4 4" x="1672" y="1032" width="64" height="64" shape-rendering="auto"><rect fill="#e20808" width="4" height="4"/></svg><svg viewBox="0 0 4 4" x="1736" y="1032" width="64" height="64" shape-rendering="auto"><rect fill="#e20808" width="4" height="4"/></svg><svg viewBox="0 0 4 4" x="200" y="1096" width="64" height="64" shape-rendering="auto"><rect fill="#e20808" width="4" height="4" rx="0.85"/></svg><svg viewBox="0 0 4 4" x="328" y="1096" width="64" height="64" shape-rendering="auto"><path fill="#e20808" d="M3.15,4A0.85,0.85,0,0,0,4,3.15V4Z"/></svg><svg viewBox="0 0 4 4" x="392" y="1096" width="64" height="64" shape-rendering="auto"><path fill="#e20808" d="M0.85,0A0.85,0.85,0,0,0,0,0.85V4H4V0H0.85Z"/></svg><svg viewBox="0 0 4 4" x="456" y="1096" width="64" height="64" shape-rendering="auto"><rect fill="#e20808" width="4" height="4"/></svg><svg viewBox="0 0 4 4" x="520" y="1096" width="64" height="64" shape-rendering="auto"><rect fill="#e20808" width="4" height="4"/></svg><svg viewBox="0 0 4 4" x="584" y="1096" width="64" height="64" shape-rendering="auto"><path fill="#e20808" d="M0.85,4h2.3A0.85,0.85,0,0,0,4,3.15V0.85A0.85,0.85,0,0,0,3.15,0H0V4Z"/></svg><svg viewBox="0 0 4 4" x="712" y="1096" width="64" height="64" shape-rendering="auto"><path fill="#e20808" d="M4,0.85V0H3.15A0.85,0.85,0,0,1,4,0.85Z"/></svg><svg viewBox="0 0 4 4" x="776" y="1096" width="64" height="64" shape-rendering="auto"><path fill="#e20808" d="M0,3.15A0.85,0.85,0,0,0,0.85,4h2.3A0.85,0.85,0,0,0,4,3.15V0H0V3.15Z"/></svg><svg viewBox="0 0 4 4" x="904" y="1096" width="64" height="64" shape-rendering="auto"><rect fill="#e20808" width="4" height="4"/></svg><svg viewBox="0 0 4 4" x="1032" y="1096" width="64" height="64" shape-rendering="auto"><path fill="#e20808" d="M3.15,0H0.85A0.85,0.85,0,0,0,0,0.85v2.3A0.85,0.85,0,0,0,0.85,4H4V0Z"/></svg><svg viewBox="0 0 4 4" x="1096" y="1096" width="64" height="64" shape-rendering="auto"><rect fill="#e20808" width="4" height="4"/></svg><svg viewBox="0 0 4 4" x="1160" y="1096" width="64" height="64" shape-rendering="auto"><rect fill="#e20808" width="4" height="4"/></svg><svg viewBox="0 0 4 4" x="1224" y="1096" width="64" height="64" shape-rendering="auto"><path fill="#e20808" d="M0.85,4h2.3A0.85,0.85,0,0,0,4,3.15V0.85A0.85,0.85,0,0,0,3.15,0H0V4Z"/></svg><svg viewBox="0 0 4 4" x="1352" y="1096" width="64" height="64" shape-rendering="auto"><path fill="#e20808" d="M4,3.15V0.85A0.85,0.85,0,0,0,3.15,0H0.85A0.85,0.85,0,0,0,0,0.85V4H4Z"/></svg><svg viewBox="0 0 4 4" x="1416" y="1096" width="64" height="64" shape-rendering="auto"><path fill="#e20808" d="M4,0.85V0H3.15A0.85,0.85,0,0,1,4,0.85Z"/></svg><svg viewBox="0 0 4 4" x="1416" y="1096" width="64" height="64" shape-rendering="auto"><path fill="#e20808" d="M0.85,4A0.85,0.85,0,0,1,0,3.15V4Z"/></svg><svg viewBox="0 0 4 4" x="1480" y="1096" width="64" height="64" shape-rendering="auto"><path fill="#e20808" d="M0,3.15A0.85,0.85,0,0,0,0.85,4H4V0H0V3.15Z"/></svg><svg viewBox="0 0 4 4" x="1544" y="1096" width="64" height="64" shape-rendering="auto"><path fill="#e20808" d="M0.85,4h2.3A0.85,0.85,0,0,0,4,3.15V0.85A0.85,0.85,0,0,0,3.15,0H0V4Z"/></svg><svg viewBox="0 0 4 4" x="1672" y="1096" width="64" height="64" shape-rendering="auto"><path fill="#e20808" d="M4,0.85V0H3.15A0.85,0.85,0,0,1,4,0.85Z"/></svg><svg viewBox="0 0 4 4" x="1736" y="1096" width="64" height="64" shape-rendering="auto"><path fill="#e20808" d="M0,3.15A0.85,0.85,0,0,0,0.85,4h2.3A0.85,0.85,0,0,0,4,3.15V0H0V3.15Z"/></svg><svg viewBox="0 0 4 4" x="200" y="1160" width="64" height="64" shape-rendering="auto"><path fill="#e20808" d="M3.15,4A0.85,0.85,0,0,0,4,3.15V4Z"/></svg><svg viewBox="0 0 4 4" x="264" y="1160" width="64" height="64" shape-rendering="auto"><path fill="#e20808" d="M0.85,0A0.85,0.85,0,0,0,0,0.85V4H4V0H0.85Z"/></svg><svg viewBox="0 0 4 4" x="328" y="1160" width="64" height="64" shape-rendering="auto"><rect fill="#e20808" width="4" height="4"/></svg><svg viewBox="0 0 4 4" x="392" y="1160" width="64" height="64" shape-rendering="auto"><rect fill="#e20808" width="4" height="4"/></svg><svg viewBox="0 0 4 4" x="456" y="1160" width="64" height="64" shape-rendering="auto"><rect fill="#e20808" width="4" height="4"/></svg><svg viewBox="0 0 4 4" x="520" y="1160" width="64" height="64" shape-rendering="auto"><path fill="#e20808" d="M0.85,0H0V0.85A0.85,0.85,0,0,1,0.85,0Z"/></svg><svg viewBox="0 0 4 4" x="904" y="1160" width="64" height="64" shape-rendering="auto"><path fill="#e20808" d="M0,3.15A0.85,0.85,0,0,0,0.85,4h2.3A0.85,0.85,0,0,0,4,3.15V0H0V3.15Z"/></svg><svg viewBox="0 0 4 4" x="1288" y="1160" width="64" height="64" shape-rendering="auto"><path fill="#e20808" d="M3.15,4A0.85,0.85,0,0,0,4,3.15V4Z"/></svg><svg viewBox="0 0 4 4" x="1352" y="1160" width="64" height="64" shape-rendering="auto"><rect fill="#e20808" width="4" height="4"/></svg><svg viewBox="0 0 4 4" x="1416" y="1160" width="64" height="64" shape-rendering="auto"><path fill="#e20808" d="M3.15,0A0.85,0.85,0,0,1,4,0.85V4H0V0H3.15Z"/></svg><svg viewBox="0 0 4 4" x="1480" y="1160" width="64" height="64" shape-rendering="auto"><path fill="#e20808" d="M0.85,4A0.85,0.85,0,0,1,0,3.15V4Z"/></svg><svg viewBox="0 0 4 4" x="200" y="1224" width="64" height="64" shape-rendering="auto"><path fill="#e20808" d="M3.15,0H0.85A0.85,0.85,0,0,0,0,0.85v2.3A0.85,0.85,0,0,0,0.85,4H4V0Z"/></svg><svg viewBox="0 0 4 4" x="264" y="1224" width="64" height="64" shape-rendering="auto"><path fill="#e20808" d="M4,3.15A0.85,0.85,0,0,1,3.15,4H0V0H4V3.15Z"/></svg><svg viewBox="0 0 4 4" x="328" y="1224" width="64" height="64" shape-rendering="auto"><path fill="#e20808" d="M0.85,0H0V0.85A0.85,0.85,0,0,1,0.85,0Z"/></svg><svg viewBox="0 0 4 4" x="392" y="1224" width="64" height="64" shape-rendering="auto"><path fill="#e20808" d="M4,0.85V0H3.15A0.85,0.85,0,0,1,4,0.85Z"/></svg><svg viewBox="0 0 4 4" x="456" y="1224" width="64" height="64" shape-rendering="auto"><path fill="#e20808" d="M0,3.15A0.85,0.85,0,0,0,0.85,4h2.3A0.85,0.85,0,0,0,4,3.15V0H0V3.15Z"/></svg><svg viewBox="0 0 4 4" x="584" y="1224" width="64" height="64" shape-rendering="auto"><rect fill="#e20808" width="4" height="4" rx="0.85"/></svg><svg viewBox="0 0 4 4" x="712" y="1224" width="64" height="64" shape-rendering="auto"><path fill="#e20808" d="M4,3.15V0.85A0.85,0.85,0,0,0,3.15,0H0.85A0.85,0.85,0,0,0,0,0.85V4H4Z"/></svg><svg viewBox="0 0 4 4" x="968" y="1224" width="64" height="64" shape-rendering="auto"><path fill="#e20808" d="M4,3.15V0.85A0.85,0.85,0,0,0,3.15,0H0.85A0.85,0.85,0,0,0,0,0.85V4H4Z"/></svg><svg viewBox="0 0 4 4" x="1032" y="1224" width="64" height="64" shape-rendering="auto"><path fill="#e20808" d="M0.85,4A0.85,0.85,0,0,1,0,3.15V4Z"/></svg><svg viewBox="0 0 4 4" x="1224" y="1224" width="64" height="64" shape-rendering="auto"><path fill="#e20808" d="M0.85,0A0.85,0.85,0,0,0,0,0.85V4H4V0H0.85Z"/></svg><svg viewBox="0 0 4 4" x="1288" y="1224" width="64" height="64" shape-rendering="auto"><rect fill="#e20808" width="4" height="4"/></svg><svg viewBox="0 0 4 4" x="1352" y="1224" width="64" height="64" shape-rendering="auto"><rect fill="#e20808" width="4" height="4"/></svg><svg viewBox="0 0 4 4" x="1416" y="1224" width="64" height="64" shape-rendering="auto"><rect fill="#e20808" width="4" height="4"/></svg><svg viewBox="0 0 4 4" x="1480" y="1224" width="64" height="64" shape-rendering="auto"><path fill="#e20808" d="M3.15,0A0.85,0.85,0,0,1,4,0.85V4H0V0H3.15Z"/></svg><svg viewBox="0 0 4 4" x="1736" y="1224" width="64" height="64" shape-rendering="auto"><rect fill="#e20808" width="4" height="4" rx="0.85"/></svg><svg viewBox="0 0 4 4" x="712" y="1288" width="64" height="64" shape-rendering="auto"><rect fill="#e20808" width="4" height="4"/></svg><svg viewBox="0 0 4 4" x="776" y="1288" width="64" height="64" shape-rendering="auto"><path fill="#e20808" d="M3.15,4A0.85,0.85,0,0,0,4,3.15V4Z"/></svg><svg viewBox="0 0 4 4" x="776" y="1288" width="64" height="64" shape-rendering="auto"><path fill="#e20808" d="M0.85,4A0.85,0.85,0,0,1,0,3.15V4Z"/></svg><svg viewBox="0 0 4 4" x="840" y="1288" width="64" height="64" shape-rendering="auto"><path fill="#e20808" d="M4,3.15V0.85A0.85,0.85,0,0,0,3.15,0H0.85A0.85,0.85,0,0,0,0,0.85V4H4Z"/></svg><svg viewBox="0 0 4 4" x="904" y="1288" width="64" height="64" shape-rendering="auto"><path fill="#e20808" d="M3.15,4A0.85,0.85,0,0,0,4,3.15V4Z"/></svg><svg viewBox="0 0 4 4" x="904" y="1288" width="64" height="64" shape-rendering="auto"><path fill="#e20808" d="M0.85,4A0.85,0.85,0,0,1,0,3.15V4Z"/></svg><svg viewBox="0 0 4 4" x="968" y="1288" width="64" height="64" shape-rendering="auto"><rect fill="#e20808" width="4" height="4"/></svg><svg viewBox="0 0 4 4" x="1032" y="1288" width="64" height="64" shape-rendering="auto"><rect fill="#e20808" width="4" height="4"/></svg><svg viewBox="0 0 4 4" x="1096" y="1288" width="64" height="64" shape-rendering="auto"><path fill="#e20808" d="M0.85,4h2.3A0.85,0.85,0,0,0,4,3.15V0.85A0.85,0.85,0,0,0,3.15,0H0V4Z"/></svg><svg viewBox="0 0 4 4" x="1160" y="1288" width="64" height="64" shape-rendering="auto"><path fill="#e20808" d="M3.15,4A0.85,0.85,0,0,0,4,3.15V4Z"/></svg><svg viewBox="0 0 4 4" x="1224" y="1288" width="64" height="64" shape-rendering="auto"><rect fill="#e20808" width="4" height="4"/></svg><svg viewBox="0 0 4 4" x="1288" y="1288" width="64" height="64" shape-rendering="auto"><path fill="#e20808" d="M0.85,0H0V0.85A0.85,0.85,0,0,1,0.85,0Z"/></svg><svg viewBox="0 0 4 4" x="1416" y="1288" width="64" height="64" shape-rendering="auto"><path fill="#e20808" d="M4,0.85V0H3.15A0.85,0.85,0,0,1,4,0.85Z"/></svg><svg viewBox="0 0 4 4" x="1480" y="1288" width="64" height="64" shape-rendering="auto"><rect fill="#e20808" width="4" height="4"/></svg><svg viewBox="0 0 4 4" x="1544" y="1288" width="64" height="64" shape-rendering="auto"><path fill="#e20808" d="M0.85,4A0.85,0.85,0,0,1,0,3.15V4Z"/></svg><svg viewBox="0 0 4 4" x="712" y="1352" width="64" height="64" shape-rendering="auto"><path fill="#e20808" d="M0,3.15A0.85,0.85,0,0,0,0.85,4H4V0H0V3.15Z"/></svg><svg viewBox="0 0 4 4" x="776" y="1352" width="64" height="64" shape-rendering="auto"><rect fill="#e20808" width="4" height="4"/></svg><svg viewBox="0 0 4 4" x="840" y="1352" width="64" height="64" shape-rendering="auto"><rect fill="#e20808" width="4" height="4"/></svg><svg viewBox="0 0 4 4" x="904" y="1352" width="64" height="64" shape-rendering="auto"><rect fill="#e20808" width="4" height="4"/></svg><svg viewBox="0 0 4 4" x="968" y="1352" width="64" height="64" shape-rendering="auto"><rect fill="#e20808" width="4" height="4"/></svg><svg viewBox="0 0 4 4" x="1032" y="1352" width="64" height="64" shape-rendering="auto"><path fill="#e20808" d="M0.85,0H0V0.85A0.85,0.85,0,0,1,0.85,0Z"/></svg><svg viewBox="0 0 4 4" x="1160" y="1352" width="64" height="64" shape-rendering="auto"><path fill="#e20808" d="M3.15,0H0.85A0.85,0.85,0,0,0,0,0.85v2.3A0.85,0.85,0,0,0,0.85,4H4V0Z"/></svg><svg viewBox="0 0 4 4" x="1224" y="1352" width="64" height="64" shape-rendering="auto"><rect fill="#e20808" width="4" height="4"/></svg><svg viewBox="0 0 4 4" x="1352" y="1352" width="64" height="64" shape-rendering="auto"><rect fill="#e20808" width="4" height="4" rx="0.85"/></svg><svg viewBox="0 0 4 4" x="1480" y="1352" width="64" height="64" shape-rendering="auto"><rect fill="#e20808" width="4" height="4"/></svg><svg viewBox="0 0 4 4" x="1544" y="1352" width="64" height="64" shape-rendering="auto"><path fill="#e20808" d="M3.15,0A0.85,0.85,0,0,1,4,0.85V4H0V0H3.15Z"/></svg><svg viewBox="0 0 4 4" x="1608" y="1352" width="64" height="64" shape-rendering="auto"><path fill="#e20808" d="M3.15,4A0.85,0.85,0,0,0,4,3.15V4Z"/></svg><svg viewBox="0 0 4 4" x="1608" y="1352" width="64" height="64" shape-rendering="auto"><path fill="#e20808" d="M0.85,4A0.85,0.85,0,0,1,0,3.15V4Z"/></svg><svg viewBox="0 0 4 4" x="1672" y="1352" width="64" height="64" shape-rendering="auto"><path fill="#e20808" d="M0.85,0A0.85,0.85,0,0,0,0,0.85V4H4V0H0.85Z"/></svg><svg viewBox="0 0 4 4" x="1736" y="1352" width="64" height="64" shape-rendering="auto"><path fill="#e20808" d="M3.15,0A0.85,0.85,0,0,1,4,0.85V4H0V0H3.15Z"/></svg><svg viewBox="0 0 4 4" x="712" y="1416" width="64" height="64" shape-rendering="auto"><path fill="#e20808" d="M4,0.85V0H3.15A0.85,0.85,0,0,1,4,0.85Z"/></svg><svg viewBox="0 0 4 4" x="776" y="1416" width="64" height="64" shape-rendering="auto"><path fill="#e20808" d="M0,3.15A0.85,0.85,0,0,0,0.85,4h2.3A0.85,0.85,0,0,0,4,3.15V0H0V3.15Z"/></svg><svg viewBox="0 0 4 4" x="840" y="1416" width="64" height="64" shape-rendering="auto"><path fill="#e20808" d="M0.85,0H0V0.85A0.85,0.85,0,0,1,0.85,0Z"/></svg><svg viewBox="0 0 4 4" x="904" y="1416" width="64" height="64" shape-rendering="auto"><path fill="#e20808" d="M4,0.85V0H3.15A0.85,0.85,0,0,1,4,0.85Z"/></svg><svg viewBox="0 0 4 4" x="968" y="1416" width="64" height="64" shape-rendering="auto"><rect fill="#e20808" width="4" height="4"/></svg><svg viewBox="0 0 4 4" x="1032" y="1416" width="64" height="64" shape-rendering="auto"><path fill="#e20808" d="M0.85,4A0.85,0.85,0,0,1,0,3.15V4Z"/></svg><svg viewBox="0 0 4 4" x="1160" y="1416" width="64" height="64" shape-rendering="auto"><path fill="#e20808" d="M4,0.85V0H3.15A0.85,0.85,0,0,1,4,0.85Z"/></svg><svg viewBox="0 0 4 4" x="1160" y="1416" width="64" height="64" shape-rendering="auto"><path fill="#e20808" d="M3.15,4A0.85,0.85,0,0,0,4,3.15V4Z"/></svg><svg viewBox="0 0 4 4" x="1224" y="1416" width="64" height="64" shape-rendering="auto"><rect fill="#e20808" width="4" height="4"/></svg><svg viewBox="0 0 4 4" x="1288" y="1416" width="64" height="64" shape-rendering="auto"><path fill="#e20808" d="M0.85,4A0.85,0.85,0,0,1,0,3.15V4Z"/></svg><svg viewBox="0 0 4 4" x="1416" y="1416" width="64" height="64" shape-rendering="auto"><path fill="#e20808" d="M3.15,4A0.85,0.85,0,0,0,4,3.15V4Z"/></svg><svg viewBox="0 0 4 4" x="1480" y="1416" width="64" height="64" shape-rendering="auto"><rect fill="#e20808" width="4" height="4"/></svg><svg viewBox="0 0 4 4" x="1544" y="1416" width="64" height="64" shape-rendering="auto"><rect fill="#e20808" width="4" height="4"/></svg><svg viewBox="0 0 4 4" x="1608" y="1416" width="64" height="64" shape-rendering="auto"><rect fill="#e20808" width="4" height="4"/></svg><svg viewBox="0 0 4 4" x="1672" y="1416" width="64" height="64" shape-rendering="auto"><rect fill="#e20808" width="4" height="4"/></svg><svg viewBox="0 0 4 4" x="1736" y="1416" width="64" height="64" shape-rendering="auto"><path fill="#e20808" d="M4,3.15A0.85,0.85,0,0,1,3.15,4H0V0H4V3.15Z"/></svg><svg viewBox="0 0 4 4" x="776" y="1480" width="64" height="64" shape-rendering="auto"><path fill="#e20808" d="M3.15,4A0.85,0.85,0,0,0,4,3.15V4Z"/></svg><svg viewBox="0 0 4 4" x="840" y="1480" width="64" height="64" shape-rendering="auto"><path fill="#e20808" d="M4,3.15V0.85A0.85,0.85,0,0,0,3.15,0H0.85A0.85,0.85,0,0,0,0,0.85V4H4Z"/></svg><svg viewBox="0 0 4 4" x="904" y="1480" width="64" height="64" shape-rendering="auto"><path fill="#e20808" d="M0.85,4A0.85,0.85,0,0,1,0,3.15V4Z"/></svg><svg viewBox="0 0 4 4" x="968" y="1480" width="64" height="64" shape-rendering="auto"><path fill="#e20808" d="M0,3.15A0.85,0.85,0,0,0,0.85,4H4V0H0V3.15Z"/></svg><svg viewBox="0 0 4 4" x="1032" y="1480" width="64" height="64" shape-rendering="auto"><path fill="#e20808" d="M3.15,0A0.85,0.85,0,0,1,4,0.85V4H0V0H3.15Z"/></svg><svg viewBox="0 0 4 4" x="1160" y="1480" width="64" height="64" shape-rendering="auto"><path fill="#e20808" d="M0.85,0A0.85,0.85,0,0,0,0,0.85V4H4V0H0.85Z"/></svg><svg viewBox="0 0 4 4" x="1224" y="1480" width="64" height="64" shape-rendering="auto"><rect fill="#e20808" width="4" height="4"/></svg><svg viewBox="0 0 4 4" x="1288" y="1480" width="64" height="64" shape-rendering="auto"><rect fill="#e20808" width="4" height="4"/></svg><svg viewBox="0 0 4 4" x="1352" y="1480" width="64" height="64" shape-rendering="auto"><rect fill="#e20808" width="4" height="4"/></svg><svg viewBox="0 0 4 4" x="1416" y="1480" width="64" height="64" shape-rendering="auto"><rect fill="#e20808" width="4" height="4"/></svg><svg viewBox="0 0 4 4" x="1480" y="1480" width="64" height="64" shape-rendering="auto"><rect fill="#e20808" width="4" height="4"/></svg><svg viewBox="0 0 4 4" x="1544" y="1480" width="64" height="64" shape-rendering="auto"><path fill="#e20808" d="M0.85,0H0V0.85A0.85,0.85,0,0,1,0.85,0Z"/></svg><svg viewBox="0 0 4 4" x="1544" y="1480" width="64" height="64" shape-rendering="auto"><path fill="#e20808" d="M4,0.85V0H3.15A0.85,0.85,0,0,1,4,0.85Z"/></svg><svg viewBox="0 0 4 4" x="1608" y="1480" width="64" height="64" shape-rendering="auto"><path fill="#e20808" d="M0,3.15A0.85,0.85,0,0,0,0.85,4H4V0H0V3.15Z"/></svg><svg viewBox="0 0 4 4" x="1672" y="1480" width="64" height="64" shape-rendering="auto"><path fill="#e20808" d="M4,3.15A0.85,0.85,0,0,1,3.15,4H0V0H4V3.15Z"/></svg><svg viewBox="0 0 4 4" x="1736" y="1480" width="64" height="64" shape-rendering="auto"><path fill="#e20808" d="M0.85,0H0V0.85A0.85,0.85,0,0,1,0.85,0Z"/></svg><svg viewBox="0 0 4 4" x="712" y="1544" width="64" height="64" shape-rendering="auto"><path fill="#e20808" d="M3.15,0H0.85A0.85,0.85,0,0,0,0,0.85v2.3A0.85,0.85,0,0,0,0.85,4H4V0Z"/></svg><svg viewBox="0 0 4 4" x="776" y="1544" width="64" height="64" shape-rendering="auto"><rect fill="#e20808" width="4" height="4"/></svg><svg viewBox="0 0 4 4" x="840" y="1544" width="64" height="64" shape-rendering="auto"><rect fill="#e20808" width="4" height="4"/></svg><svg viewBox="0 0 4 4" x="904" y="1544" width="64" height="64" shape-rendering="auto"><path fill="#e20808" d="M0.85,4h2.3A0.85,0.85,0,0,0,4,3.15V0.85A0.85,0.85,0,0,0,3.15,0H0V4Z"/></svg><svg viewBox="0 0 4 4" x="968" y="1544" width="64" height="64" shape-rendering="auto"><path fill="#e20808" d="M4,0.85V0H3.15A0.85,0.85,0,0,1,4,0.85Z"/></svg><svg viewBox="0 0 4 4" x="1032" y="1544" width="64" height="64" shape-rendering="auto"><path fill="#e20808" d="M0,3.15A0.85,0.85,0,0,0,0.85,4h2.3A0.85,0.85,0,0,0,4,3.15V0H0V3.15Z"/></svg><svg viewBox="0 0 4 4" x="1160" y="1544" width="64" height="64" shape-rendering="auto"><rect fill="#e20808" width="4" height="4"/></svg><svg viewBox="0 0 4 4" x="1224" y="1544" width="64" height="64" shape-rendering="auto"><rect fill="#e20808" width="4" height="4"/></svg><svg viewBox="0 0 4 4" x="1288" y="1544" width="64" height="64" shape-rendering="auto"><path fill="#e20808" d="M4,3.15A0.85,0.85,0,0,1,3.15,4H0V0H4V3.15Z"/></svg><svg viewBox="0 0 4 4" x="1352" y="1544" width="64" height="64" shape-rendering="auto"><path fill="#e20808" d="M0.85,0H0V0.85A0.85,0.85,0,0,1,0.85,0Z"/></svg><svg viewBox="0 0 4 4" x="1352" y="1544" width="64" height="64" shape-rendering="auto"><path fill="#e20808" d="M4,0.85V0H3.15A0.85,0.85,0,0,1,4,0.85Z"/></svg><svg viewBox="0 0 4 4" x="1416" y="1544" width="64" height="64" shape-rendering="auto"><rect fill="#e20808" width="4" height="4"/></svg><svg viewBox="0 0 4 4" x="1480" y="1544" width="64" height="64" shape-rendering="auto"><path fill="#e20808" d="M4,3.15A0.85,0.85,0,0,1,3.15,4H0V0H4V3.15Z"/></svg><svg viewBox="0 0 4 4" x="712" y="1608" width="64" height="64" shape-rendering="auto"><path fill="#e20808" d="M4,0.85V0H3.15A0.85,0.85,0,0,1,4,0.85Z"/></svg><svg viewBox="0 0 4 4" x="712" y="1608" width="64" height="64" shape-rendering="auto"><path fill="#e20808" d="M3.15,4A0.85,0.85,0,0,0,4,3.15V4Z"/></svg><svg viewBox="0 0 4 4" x="776" y="1608" width="64" height="64" shape-rendering="auto"><rect fill="#e20808" width="4" height="4"/></svg><svg viewBox="0 0 4 4" x="840" y="1608" width="64" height="64" shape-rendering="auto"><path fill="#e20808" d="M0.85,0H0V0.85A0.85,0.85,0,0,1,0.85,0Z"/></svg><svg viewBox="0 0 4 4" x="968" y="1608" width="64" height="64" shape-rendering="auto"><rect fill="#e20808" width="4" height="4" rx="0.85"/></svg><svg viewBox="0 0 4 4" x="1160" y="1608" width="64" height="64" shape-rendering="auto"><path fill="#e20808" d="M0,3.15A0.85,0.85,0,0,0,0.85,4h2.3A0.85,0.85,0,0,0,4,3.15V0H0V3.15Z"/></svg><svg viewBox="0 0 4 4" x="1224" y="1608" width="64" height="64" shape-rendering="auto"><path fill="#e20808" d="M0.85,0H0V0.85A0.85,0.85,0,0,1,0.85,0Z"/></svg><svg viewBox="0 0 4 4" x="1416" y="1608" width="64" height="64" shape-rendering="auto"><path fill="#e20808" d="M0,3.15A0.85,0.85,0,0,0,0.85,4h2.3A0.85,0.85,0,0,0,4,3.15V0H0V3.15Z"/></svg><svg viewBox="0 0 4 4" x="1480" y="1608" width="64" height="64" shape-rendering="auto"><path fill="#e20808" d="M0.85,0H0V0.85A0.85,0.85,0,0,1,0.85,0Z"/></svg><svg viewBox="0 0 4 4" x="1544" y="1608" width="64" height="64" shape-rendering="auto"><path fill="#e20808" d="M0.85,0A0.85,0.85,0,0,0,0,0.85V4H4V0H0.85Z"/></svg><svg viewBox="0 0 4 4" x="1608" y="1608" width="64" height="64" shape-rendering="auto"><path fill="#e20808" d="M0.85,4h2.3A0.85,0.85,0,0,0,4,3.15V0.85A0.85,0.85,0,0,0,3.15,0H0V4Z"/></svg><svg viewBox="0 0 4 4" x="1672" y="1608" width="64" height="64" shape-rendering="auto"><path fill="#e20808" d="M3.15,4A0.85,0.85,0,0,0,4,3.15V4Z"/></svg><svg viewBox="0 0 4 4" x="1736" y="1608" width="64" height="64" shape-rendering="auto"><path fill="#e20808" d="M4,3.15V0.85A0.85,0.85,0,0,0,3.15,0H0.85A0.85,0.85,0,0,0,0,0.85V4H4Z"/></svg><svg viewBox="0 0 4 4" x="712" y="1672" width="64" height="64" shape-rendering="auto"><path fill="#e20808" d="M0.85,0A0.85,0.85,0,0,0,0,0.85V4H4V0H0.85Z"/></svg><svg viewBox="0 0 4 4" x="776" y="1672" width="64" height="64" shape-rendering="auto"><path fill="#e20808" d="M4,3.15A0.85,0.85,0,0,1,3.15,4H0V0H4V3.15Z"/></svg><svg viewBox="0 0 4 4" x="1096" y="1672" width="64" height="64" shape-rendering="auto"><path fill="#e20808" d="M4,3.15V0.85A0.85,0.85,0,0,0,3.15,0H0.85A0.85,0.85,0,0,0,0,0.85V4H4Z"/></svg><svg viewBox="0 0 4 4" x="1224" y="1672" width="64" height="64" shape-rendering="auto"><path fill="#e20808" d="M0.85,0A0.85,0.85,0,0,0,0,0.85V4H4V0H0.85Z"/></svg><svg viewBox="0 0 4 4" x="1288" y="1672" width="64" height="64" shape-rendering="auto"><path fill="#e20808" d="M0.85,4h2.3A0.85,0.85,0,0,0,4,3.15V0.85A0.85,0.85,0,0,0,3.15,0H0V4Z"/></svg><svg viewBox="0 0 4 4" x="1480" y="1672" width="64" height="64" shape-rendering="auto"><path fill="#e20808" d="M3.15,4A0.85,0.85,0,0,0,4,3.15V4Z"/></svg><svg viewBox="0 0 4 4" x="1544" y="1672" width="64" height="64" shape-rendering="auto"><rect fill="#e20808" width="4" height="4"/></svg><svg viewBox="0 0 4 4" x="1608" y="1672" width="64" height="64" shape-rendering="auto"><path fill="#e20808" d="M0.85,0H0V0.85A0.85,0.85,0,0,1,0.85,0Z"/></svg><svg viewBox="0 0 4 4" x="1672" y="1672" width="64" height="64" shape-rendering="auto"><path fill="#e20808" d="M0.85,0A0.85,0.85,0,0,0,0,0.85V4H4V0H0.85Z"/></svg><svg viewBox="0 0 4 4" x="1736" y="1672" width="64" height="64" shape-rendering="auto"><rect fill="#e20808" width="4" height="4"/></svg><svg viewBox="0 0 4 4" x="712" y="1736" width="64" height="64" shape-rendering="auto"><path fill="#e20808" d="M0,3.15A0.85,0.85,0,0,0,0.85,4h2.3A0.85,0.85,0,0,0,4,3.15V0H0V3.15Z"/></svg><svg viewBox="0 0 4 4" x="776" y="1736" width="64" height="64" shape-rendering="auto"><path fill="#e20808" d="M0.85,0H0V0.85A0.85,0.85,0,0,1,0.85,0Z"/></svg><svg viewBox="0 0 4 4" x="840" y="1736" width="64" height="64" shape-rendering="auto"><rect fill="#e20808" width="4" height="4" rx="0.85"/></svg><svg viewBox="0 0 4 4" x="968" y="1736" width="64" height="64" shape-rendering="auto"><rect fill="#e20808" width="4" height="4" rx="0.85"/></svg><svg viewBox="0 0 4 4" x="1096" y="1736" width="64" height="64" shape-rendering="auto"><path fill="#e20808" d="M0,3.15A0.85,0.85,0,0,0,0.85,4h2.3A0.85,0.85,0,0,0,4,3.15V0H0V3.15Z"/></svg><svg viewBox="0 0 4 4" x="1224" y="1736" width="64" height="64" shape-rendering="auto"><path fill="#e20808" d="M0,3.15A0.85,0.85,0,0,0,0.85,4h2.3A0.85,0.85,0,0,0,4,3.15V0H0V3.15Z"/></svg><svg viewBox="0 0 4 4" x="1288" y="1736" width="64" height="64" shape-rendering="auto"><path fill="#e20808" d="M0.85,0H0V0.85A0.85,0.85,0,0,1,0.85,0Z"/></svg><svg viewBox="0 0 4 4" x="1480" y="1736" width="64" height="64" shape-rendering="auto"><path fill="#e20808" d="M3.15,0H0.85A0.85,0.85,0,0,0,0,0.85v2.3A0.85,0.85,0,0,0,0.85,4H4V0Z"/></svg><svg viewBox="0 0 4 4" x="1544" y="1736" width="64" height="64" shape-rendering="auto"><path fill="#e20808" d="M4,3.15A0.85,0.85,0,0,1,3.15,4H0V0H4V3.15Z"/></svg><svg viewBox="0 0 4 4" x="1672" y="1736" width="64" height="64" shape-rendering="auto"><path fill="#e20808" d="M0,3.15A0.85,0.85,0,0,0,0.85,4H4V0H0V3.15Z"/></svg><svg viewBox="0 0 4 4" x="1736" y="1736" width="64" height="64" shape-rendering="auto"><path fill="#e20808" d="M4,3.15A0.85,0.85,0,0,1,3.15,4H0V0H4V3.15Z"/></svg><svg version="1.1" id="Ebene_1" x="200" y="200" viewBox="0 0 700 700" style="enable-background:new 0 0 700 700;" xml:space="preserve" width="448" height="448" shape-rendering="auto">

<path fill="#000000" d="M21.2-0.1C9.5-0.1-0.1,9.5-0.1,21.2v78.8v100v100v100v100v100v78.8c0,11.7,9.5,21.3,21.3,21.3h657.6  c11.7,0,21.3-9.5,21.3-21.3V600V500V400V300V200v-100V21.2c0-11.7-9.5-21.3-21.3-21.3H21.2z M600,200v100v100v100v87.8  c0,6.8-5.5,12.2-12.2,12.2H112.2c-6.8,0-12.2-5.5-12.2-12.2V500V400V300V200v-87.8c0-6.8,5.5-12.2,12.2-12.2h475.6  c6.8,0,12.2,5.5,12.2,12.2V200z"/>
</svg>
<svg version="1.1" id="Ebene_1" x="200" y="200" viewBox="0 0 700 700" style="enable-background:new 0 0 700 700;" xml:space="preserve" width="448" height="448" shape-rendering="auto">

<path fill="#000000" d="M500,400V300v-78.8c0-11.7-9.5-21.3-21.3-21.3H221.2c-11.7,0-21.3,9.5-21.3,21.3V300v100v78.8    c0,11.7,9.5,21.3,21.3,21.3h257.5c11.7,0,21.3-9.5,21.3-21.3V400z"/>
</svg>
<svg version="1.1" id="Ebene_1" x="1352" y="200" viewBox="0 0 700 700" style="enable-background:new 0 0 700 700;" xml:space="preserve" width="448" height="448" shape-rendering="auto">

<path fill="#000000" d="M21.2-0.1C9.5-0.1-0.1,9.5-0.1,21.2v78.8v100v100v100v100v100v78.8c0,11.7,9.5,21.3,21.3,21.3h657.6  c11.7,0,21.3-9.5,21.3-21.3V600V500V400V300V200v-100V21.2c0-11.7-9.5-21.3-21.3-21.3H21.2z M600,200v100v100v100v87.8  c0,6.8-5.5,12.2-12.2,12.2H112.2c-6.8,0-12.2-5.5-12.2-12.2V500V400V300V200v-87.8c0-6.8,5.5-12.2,12.2-12.2h475.6  c6.8,0,12.2,5.5,12.2,12.2V200z"/>
</svg>
<svg version="1.1" id="Ebene_1" x="1352" y="200" viewBox="0 0 700 700" style="enable-background:new 0 0 700 700;" xml:space="preserve" width="448" height="448" shape-rendering="auto">

<path fill="#000000" d="M500,400V300v-78.8c0-11.7-9.5-21.3-21.3-21.3H221.2c-11.7,0-21.3,9.5-21.3,21.3V300v100v78.8    c0,11.7,9.5,21.3,21.3,21.3h257.5c11.7,0,21.3-9.5,21.3-21.3V400z"/>
</svg>
<svg version="1.1" id="Ebene_1" x="200" y="1352" viewBox="0 0 700 700" style="enable-background:new 0 0 700 700;" xml:space="preserve" width="448" height="448" shape-rendering="auto">

<path fill="#000000" d="M21.2-0.1C9.5-0.1-0.1,9.5-0.1,21.2v78.8v100v100v100v100v100v78.8c0,11.7,9.5,21.3,21.3,21.3h657.6  c11.7,0,21.3-9.5,21.3-21.3V600V500V400V300V200v-100V21.2c0-11.7-9.5-21.3-21.3-21.3H21.2z M600,200v100v100v100v87.8  c0,6.8-5.5,12.2-12.2,12.2H112.2c-6.8,0-12.2-5.5-12.2-12.2V500V400V300V200v-87.8c0-6.8,5.5-12.2,12.2-12.2h475.6  c6.8,0,12.2,5.5,12.2,12.2V200z"/>
</svg>
<svg version="1.1" id="Ebene_1" x="200" y="1352" viewBox="0 0 700 700" style="enable-background:new 0 0 700 700;" xml:space="preserve" width="448" height="448" shape-rendering="auto">

<path fill="#000000" d="M500,400V300v-78.8c0-11.7-9.5-21.3-21.3-21.3H221.2c-11.7,0-21.3,9.5-21.3,21.3V300v100v78.8    c0,11.7,9.5,21.3,21.3,21.3h257.5c11.7,0,21.3-9.5,21.3-21.3V400z"/>
</svg>
</svg>

<path id="FrameBody" class="frame-color" d="M243.1,289.8H35.9c-19.8,0-35.9,16.1-35.9,36l0,0c0,19.8,16.1,35.9,35.9,35.9H243
	c19.8,0,35.9-16.1,35.9-35.9l0,0C279,305.9,262.9,289.8,243.1,289.8L243.1,289.8z M265.3,0H13.7C6.1,0,0,6.1,0,13.7v251.7
	c0,7.5,6.1,13.7,13.7,13.7h251.7c7.5,0,13.7-6.1,13.7-13.7V13.7C279,6.1,272.9,0,265.3,0z M268.5,261.1c0,4.1-3.3,7.4-7.4,7.4H17.9
	c-4.1,0-7.4-3.3-7.4-7.4V17.9c0-4.1,3.3-7.4,7.4-7.4h243.2c4.1,0,7.4,3.3,7.4,7.4V261.1z"/>
<path id="IconCircle" class="circle-color show_on_light" d="M35.9,297.2c-15.8,0-28.5,12.7-28.5,28.5s12.7,28.5,28.5,28.5s28.5-12.7,28.5-28.5
	C64.4,310,51.7,297.2,35.9,297.2z"/>
<path id="IconCircle" class="circle-color-black hide_on_light" d="M35.9,297.2c-15.8,0-28.5,12.7-28.5,28.5s12.7,28.5,28.5,28.5s28.5-12.7,28.5-28.5
	C64.4,310,51.7,297.2,35.9,297.2z"/>
<path id="IconCircleOutline" class="circle-outline show_on_light" d="M35.9,299.2c14.6,0,26.5,11.9,26.5,26.5s-11.9,26.5-26.5,26.5S9.4,340.3,9.4,325.7
	S21.3,299.2,35.9,299.2 M35.9,297.2c-15.8,0-28.5,12.7-28.5,28.5s12.7,28.5,28.5,28.5s28.5-12.7,28.5-28.5
	C64.4,310,51.7,297.2,35.9,297.2L35.9,297.2z"/>
<path id="PhoneIcon" class="icon-color hide_on_light" d="M48.2,307.5v13v2v21c0,2.3-1.9,4.1-4.1,4.1H26.4c-2.3,0-4.1-1.9-4.1-4.1v-21v-2v-13c0-2.3,1.9-4.1,4.1-4.1
	h17.7C46.3,303.4,48.2,305.3,48.2,307.5z M29.9,307.7c0,1.1,0.9,1.9,1.9,1.9h6.8c1.1,0,1.9-0.9,1.9-1.9s-0.9-1.9-1.9-1.9h-6.7
	C30.8,305.8,29.9,306.6,29.9,307.7z M45.1,312.4l-19.9-0.2v26.6h19.9V312.4z M32.5,343.2c0,1.4,1.3,2.7,2.7,2.7s2.7-1.3,2.7-2.7
	s-1.3-2.7-2.7-2.7C33.8,340.4,32.5,341.7,32.5,343.2z"/>
<path id="PhoneIconBlack" class="icon-black show_on_light" d="M48.2,307.5v13v2v21c0,2.3-1.9,4.1-4.1,4.1H26.4c-2.3,0-4.1-1.9-4.1-4.1v-21v-2v-13
	c0-2.3,1.9-4.1,4.1-4.1h17.7C46.3,303.4,48.2,305.3,48.2,307.5z M29.9,307.7c0,1.1,0.9,1.9,1.9,1.9h6.8c1.1,0,1.9-0.9,1.9-1.9
	s-0.9-1.9-1.9-1.9h-6.7C30.8,305.8,29.9,306.6,29.9,307.7z M45.1,312.4l-19.9-0.2v26.6h19.9V312.4z M32.5,343.2
	c0,1.4,1.3,2.7,2.7,2.7s2.7-1.3,2.7-2.7s-1.3-2.7-2.7-2.7C33.8,340.4,32.5,341.7,32.5,343.2z"/>
	<svg id="TextArea" x="70" y="295" width="180" height="62" viewBox="0 0 93.90283203125 17.588541666667" preserveAspectRatio="xMidYMid meet">
<svg version="1.1" xmlns="http://www.w3.org/2000/svg"><path class="text-color" fill="#FFFFFF" d=" M10.2158203125,9.18994140625q0,1.9443359375-1.060791015625,2.972900390625t-3.042724609375,1.028564453125l-2.18603515625,0l0-7.8525390625l2.4169921875,0q1.83154296875,0,2.85205078125,1.007080078125t1.0205078125,2.843994140625z M9.173828125,9.22216796875q0-1.49853515625-0.738525390625-2.269287109375t-2.231689453125-0.770751953125l-1.2890625,0l0,6.16064453125l1.06884765625,0q3.1904296875,0,3.1904296875-3.12060546875z M14.330078125,13.298828125q-1.32666015625,0-2.081298828125-0.802978515625t-0.754638671875-2.210205078125q0-1.41796875,0.70361328125-2.258544921875t1.9013671875-0.840576171875q1.11181640625,0,1.7724609375,0.717041015625t0.66064453125,1.941650390625l0,0.58544921875l-4.0390625,0q0.02685546875,1.00439453125,0.51025390625,1.525390625t1.36962890625,0.52099609375q0.47265625,0,0.89697265625-0.083251953125t0.99365234375-0.324951171875l0,0.8486328125q-0.48876953125,0.20947265625-0.91845703125,0.29541015625t-1.01513671875,0.0859375z M14.08837890625,7.97607421875q-0.69287109375,0-1.095703125,0.44580078125t-0.47802734375,1.24072265625l3.00244140625,0q-0.0107421875-0.8271484375-0.38134765625-1.2568359375t-1.04736328125-0.4296875z M18.9921875,13.19140625l-0.966796875,0l0-8.357421875l0.966796875,0l0,8.357421875z M21.828125,13.19140625l-0.966796875,0l0-5.8974609375l0.966796875,0l0,5.8974609375z M20.7861328125,5.69873046875q0-0.322265625,0.163818359375-0.46728515625t0.405517578125-0.14501953125q0.2255859375,0,0.394775390625,0.14501953125t0.169189453125,0.46728515625q0,0.31689453125-0.169189453125,0.46728515625t-0.394775390625,0.150390625q-0.24169921875,0-0.405517578125-0.150390625t-0.163818359375-0.46728515625z M24.9970703125,13.19140625l-2.234375-5.8974609375l1.03662109375,0l1.25146484375,3.47509765625q0.37060546875,1.04736328125,0.47265625,1.56298828125l0.04296875,0q0.01611328125-0.06982421875,0.040283203125-0.158447265625t0.056396484375-0.193359375t0.3974609375-1.211181640625l1.2568359375-3.47509765625l1.03125,0l-2.23974609375,5.8974609375l-1.11181640625,0z M31.79150390625,13.298828125q-1.32666015625,0-2.081298828125-0.802978515625t-0.754638671875-2.210205078125q0-1.41796875,0.70361328125-2.258544921875t1.9013671875-0.840576171875q1.11181640625,0,1.7724609375,0.717041015625t0.66064453125,1.941650390625l0,0.58544921875l-4.0390625,0q0.02685546875,1.00439453125,0.51025390625,1.525390625t1.36962890625,0.52099609375q0.47265625,0,0.89697265625-0.083251953125t0.99365234375-0.324951171875l0,0.8486328125q-0.48876953125,0.20947265625-0.91845703125,0.29541015625t-1.01513671875,0.0859375z M31.5498046875,7.97607421875q-0.69287109375,0-1.095703125,0.44580078125t-0.47802734375,1.24072265625l3.00244140625,0q-0.0107421875-0.8271484375-0.38134765625-1.2568359375t-1.04736328125-0.4296875z M38.23681640625,7.1865234375q0.39208984375,0,0.69287109375,0.064453125l-0.1181640625,0.8916015625q-0.32763671875-0.0751953125-0.63916015625-0.0751953125q-0.46728515625,0-0.867431640625,0.2578125t-0.625732421875,0.711669921875t-0.2255859375,1.007080078125l0,3.1474609375l-0.966796875,0l0-5.8974609375l0.794921875,0l0.107421875,1.07958984375l0.04296875,0q0.33837890625-0.58544921875,0.80029296875-0.88623046875t1.00439453125-0.30078125z  M46.48681640625,13.19140625l-2.5888671875-6.8857421875l-0.04296875,0q0.08056640625,0.859375,0.08056640625,2.12158203125l0,4.76416015625l-0.9130859375,0l0-7.8525390625l1.4609375,0l2.42236328125,6.4345703125l0.04296875,0l2.46533203125-6.4345703125l1.4501953125,0l0,7.8525390625l-0.9775390625,0l0-4.82861328125q0-0.8056640625,0.0751953125-2.04638671875l-0.04296875,0l-2.62109375,6.875l-0.81103515625,0z M51.94384765625,7.2939453125l1.03662109375,0l1.27294921875,3.35693359375q0.40283203125,1.095703125,0.494140625,1.60595703125l0.04296875,0q0.04833984375-0.19873046875,0.22021484375-0.743896484375t0.2900390625-0.872802734375l1.19775390625-3.34619140625l1.0419921875,0l-2.54052734375,6.7138671875q-0.37060546875,0.9775390625-0.880859375,1.40185546875t-1.26220703125,0.42431640625q-0.40283203125,0-0.80029296875-0.09130859375l0-0.76806640625q0.2685546875,0.064453125,0.64453125,0.064453125q0.4619140625,0,0.7841796875-0.255126953125t0.5263671875-0.786865234375l0.30615234375-0.7841796875z  M68.3203125,9.25439453125q0,1.88525390625-0.953369140625,2.96484375t-2.666748046875,1.07958984375q-1.73486328125,0-2.682861328125-1.060791015625t-0.947998046875-2.994384765625q0-1.91748046875,0.942626953125-2.972900390625t2.698974609375-1.055419921875q1.7080078125,0,2.65869140625,1.071533203125t0.95068359375,2.967529296875z M62.111328125,9.25439453125q0,1.5576171875,0.66064453125,2.3740234375t1.92822265625,0.81640625q1.26220703125,0,1.91748046875-0.8056640625t0.6552734375-2.384765625q0-1.57373046875-0.64990234375-2.371337890625t-1.912109375-0.797607421875q-1.2783203125,0-1.93896484375,0.808349609375t-0.66064453125,2.360595703125z M72.6708984375,7.1865234375q0.39208984375,0,0.69287109375,0.064453125l-0.1181640625,0.8916015625q-0.32763671875-0.0751953125-0.63916015625-0.0751953125q-0.46728515625,0-0.867431640625,0.2578125t-0.625732421875,0.711669921875t-0.2255859375,1.007080078125l0,3.1474609375l-0.966796875,0l0-5.8974609375l0.794921875,0l0.107421875,1.07958984375l0.04296875,0q0.33837890625-0.58544921875,0.80029296875-0.88623046875t1.00439453125-0.30078125z M76.55419921875,13.298828125q-1.1494140625,0-1.783203125-0.794921875t-0.6337890625-2.25048828125q0-1.44482421875,0.636474609375-2.255859375t1.791259765625-0.81103515625q1.18701171875,0,1.826171875,0.8701171875l0.06982421875,0q-0.01611328125-0.107421875-0.04296875-0.432373046875t-0.02685546875-0.437744140625l0-2.3525390625l0.966796875,0l0,8.357421875l-0.77880859375,0l-0.14501953125-0.78955078125l-0.04296875,0q-0.61767578125,0.89697265625-1.8369140625,0.89697265625z M76.7099609375,12.49853515625q0.880859375,0,1.286376953125-0.480712890625t0.405517578125-1.576416015625l0-0.17724609375q0-1.22998046875-0.410888671875-1.753662109375t-1.291748046875-0.523681640625q-0.74658203125,0-1.15478515625,0.593505859375t-0.408203125,1.694580078125q0,1.095703125,0.405517578125,1.65966796875t1.168212890625,0.56396484375z M83.74072265625,13.298828125q-1.32666015625,0-2.081298828125-0.802978515625t-0.754638671875-2.210205078125q0-1.41796875,0.70361328125-2.258544921875t1.9013671875-0.840576171875q1.11181640625,0,1.7724609375,0.717041015625t0.66064453125,1.941650390625l0,0.58544921875l-4.0390625,0q0.02685546875,1.00439453125,0.51025390625,1.525390625t1.36962890625,0.52099609375q0.47265625,0,0.89697265625-0.083251953125t0.99365234375-0.324951171875l0,0.8486328125q-0.48876953125,0.20947265625-0.91845703125,0.29541015625t-1.01513671875,0.0859375z M83.4990234375,7.97607421875q-0.69287109375,0-1.095703125,0.44580078125t-0.47802734375,1.24072265625l3.00244140625,0q-0.0107421875-0.8271484375-0.38134765625-1.2568359375t-1.04736328125-0.4296875z M90.18603515625,7.1865234375q0.39208984375,0,0.69287109375,0.064453125l-0.1181640625,0.8916015625q-0.32763671875-0.0751953125-0.63916015625-0.0751953125q-0.46728515625,0-0.867431640625,0.2578125t-0.625732421875,0.711669921875t-0.2255859375,1.007080078125l0,3.1474609375l-0.966796875,0l0-5.8974609375l0.794921875,0l0.107421875,1.07958984375l0.04296875,0q0.33837890625-0.58544921875,0.80029296875-0.88623046875t1.00439453125-0.30078125z "/></svg>
</svg>

</svg>
